<svg width="80" height="96" viewBox="0 0 80 96" fill="none" xmlns="http://www.w3.org/2000/svg">
<path d="M59.9636 11.1971C60.6308 7.52721 58.0086 4.09959 54.2835 3.88496C46.5633 3.43871 33.4415 2.98609 20.5491 3.92746C19.0263 4.04105 17.5675 4.58632 16.3436 5.49938C15.1196 6.41243 14.1813 7.65544 13.6386 9.08271C7.14033 26.1571 4.03996 41.9288 2.72246 50.2758C2.17846 53.7183 4.65621 56.7847 8.13271 57.0248C13.3135 57.3797 21.3077 57.7495 30.5621 57.5625C29.6016 64.4092 28.571 74.9237 27.5446 86.4986C27.0261 92.3424 33.8983 95.5639 37.9018 91.2756C53.7118 74.333 68.2341 55.4608 76.2156 44.6828C79.1205 40.7558 76.5789 35.42 71.6957 35.2925C66.1313 35.1561 60.5646 35.142 54.9996 35.25C56.842 27.8613 58.474 19.3911 59.9636 11.1971Z" fill="#8FBFFA"/>
<path d="M59.9636 11.1971C60.6308 7.52721 58.0086 4.09959 54.2835 3.88496C46.5633 3.43871 33.4415 2.98609 20.5491 3.92746C19.0263 4.04105 17.5675 4.58632 16.3436 5.49938C15.1196 6.41243 14.1813 7.65544 13.6386 9.08271C7.14033 26.1571 4.03996 41.9288 2.72246 50.2758C2.17846 53.7183 4.65621 56.7847 8.13271 57.0248C13.3135 57.3797 21.3077 57.7495 30.5621 57.5625C29.6016 64.4092 28.571 74.9237 27.5446 86.4986C27.0261 92.3424 33.8983 95.5639 37.9018 91.2756C53.7118 74.333 68.2341 55.4608 76.2156 44.6828C79.1205 40.7558 76.579 35.42 71.6957 35.2925C66.1313 35.1561 60.5646 35.142 54.9996 35.25C56.842 27.8613 58.474 19.3911 59.9636 11.1971Z" stroke="#2859C5" stroke-width="5" stroke-linejoin="round"/>
</svg>
